<?xml version="1.0" standalone="no"?>
<!DOCTYPE svg PUBLIC "-//W3C//DTD SVG 20010904//EN"
 "http://www.w3.org/TR/2001/REC-SVG-20010904/DTD/svg10.dtd">
<svg version="1.0" xmlns="http://www.w3.org/2000/svg"
 width="1024.000000pt" height="1024.000000pt" viewBox="0 0 1024.000000 1024.000000"
 preserveAspectRatio="xMidYMid meet">

<g transform="translate(0.000000,1024.000000) scale(0.100000,-0.100000)"
fill="#000000" stroke="none">
<path d="M5065 9010 c-145 -10 -398 -54 -560 -95 -514 -131 -1025 -421 -1414
-800 -347 -338 -603 -717 -770 -1138 -81 -203 -171 -531 -171 -622 0 -16 -7
-28 -17 -32 -152 -51 -264 -165 -307 -312 -19 -64 -21 -182 -4 -249 12 -50
164 -460 353 -952 62 -162 131 -342 153 -400 21 -58 50 -126 62 -150 25 -49
152 -186 180 -195 10 -3 38 -40 63 -83 110 -190 334 -456 535 -635 404 -362
859 -597 1427 -737 l150 -37 3 -628 2 -628 88 6 c159 11 391 84 547 174 394
225 650 593 723 1037 l18 109 109 37 c227 77 433 171 624 285 760 455 1317
1178 1521 1975 33 131 68 339 85 519 19 190 16 496 -5 624 -10 59 -9 74 8 130
30 91 34 146 22 239 -27 194 -130 435 -235 546 -48 52 -74 93 -118 185 -254
535 -707 1040 -1218 1357 -380 236 -856 405 -1283 455 -159 18 -431 26 -571
15z m608 -414 c330 -54 650 -161 904 -304 238 -134 433 -283 624 -479 92 -94
229 -259 229 -275 0 -5 -20 -8 -44 -8 -245 0 -466 -199 -500 -451 -6 -43 -15
-79 -21 -79 -5 0 -102 -14 -215 -30 -113 -16 -213 -30 -222 -30 -9 0 -260 242
-558 538 -298 295 -556 543 -573 550 -74 32 -42 61 -837 -732 l-735 -733 -100
-12 c-77 -10 -765 -110 -1007 -147 -21 -3 -38 -3 -38 0 0 3 9 43 19 88 182
775 716 1450 1444 1828 292 152 606 247 947 286 153 17 549 12 683 -10z m89
-1549 c88 -92 159 -170 156 -172 -3 -3 -348 -55 -365 -55 -2 0 -3 14 -3 30 l0
31 -137 -3 -138 -3 -3 -47 c-2 -32 -8 -48 -17 -48 -7 0 -20 -3 -29 -6 -13 -5
-16 2 -16 45 l0 51 -140 0 -140 0 0 -70 c0 -56 -3 -70 -15 -70 -8 0 -131 -16
-271 -35 -141 -20 -258 -34 -261 -32 -4 5 317 338 631 655 l241 242 173 -172
c95 -95 245 -249 334 -341z m1767 57 c22 -16 58 -15 128 3 l23 5 2 -209 3
-209 190 28 c105 15 193 27 198 28 4 0 6 -86 5 -192 l-3 -192 -183 -27 c-100
-15 -189 -30 -197 -33 -13 -5 -15 -50 -15 -309 0 -299 0 -305 23 -337 38 -57
72 -75 135 -75 76 1 128 28 170 89 l32 48 0 -220 0 -219 -95 -32 c-327 -109
-604 15 -680 304 -13 51 -15 167 -15 801 l0 742 58 10 c95 16 194 14 221 -4z
m-754 -568 c177 -47 335 -216 380 -407 50 -213 -29 -436 -200 -566 -116 -88
-166 -103 -495 -149 -107 -14 -201 -29 -208 -32 -10 -3 -12 -52 -10 -228 l3
-224 -30 -5 c-16 -3 -104 -16 -195 -30 -91 -14 -175 -28 -187 -31 l-23 -4 0
290 c0 270 -1 290 -17 290 -32 0 -644 -88 -891 -129 -29 -4 -55 -11 -58 -14
-9 -9 30 -67 73 -109 60 -59 124 -83 218 -83 71 0 88 4 147 33 74 36 140 102
177 177 27 55 37 61 51 36 26 -49 118 -147 181 -193 80 -58 80 -54 -13 -153
-116 -124 -261 -213 -409 -249 -74 -18 -259 -21 -328 -5 -146 33 -293 122
-378 228 -57 71 -117 193 -145 296 -31 117 -32 326 0 445 66 248 231 449 457
559 120 59 197 75 350 76 110 0 142 -4 209 -24 135 -42 268 -145 346 -267 l30
-48 0 207 c0 157 3 209 13 212 6 2 176 29 377 59 381 57 491 65 575 42z
m-2245 -283 c0 -7 -54 -198 -174 -623 -26 -91 -97 -361 -159 -600 l-113 -435
-40 -7 c-127 -22 -405 -60 -410 -55 -7 7 -139 373 -180 500 -15 48 -31 87 -35
87 -7 0 -37 -99 -123 -409 -36 -129 -69 -238 -73 -242 -9 -9 -391 -69 -433
-69 -22 0 -27 8 -47 68 -29 91 -309 852 -465 1265 -39 103 -69 189 -67 191 5
5 440 68 444 64 4 -4 255 -696 255 -703 0 -19 44 -115 50 -108 10 11 98 282
150 460 l41 143 -72 130 c-39 72 -70 133 -68 135 8 7 395 58 449 59 l55 1 110
-295 c170 -457 176 -473 185 -464 9 9 88 273 196 649 30 104 58 192 62 196 4
3 102 18 217 34 116 15 212 29 214 31 8 7 31 4 31 -3z m3380 -1423 c0 -10 -22
-63 -30 -70 -3 -3 -6 -12 -8 -20 -6 -34 -46 -109 -55 -103 -6 3 -7 1 -3 -5 3
-6 -1 -28 -9 -49 l-16 -39 -322 -53 c-373 -62 -544 -90 -1677 -280 -459 -77
-941 -158 -1071 -180 -392 -67 -1409 -231 -1433 -231 -17 0 -45 28 -109 109
-48 60 -89 115 -92 122 -6 16 -18 14 1405 249 536 89 1232 203 1545 255 314
52 629 104 700 115 72 11 211 34 310 50 245 40 622 100 665 106 19 2 67 10
105 18 91 17 95 18 95 6z m-427 -801 c-30 -50 -236 -272 -337 -362 -275 -245
-626 -461 -951 -587 -220 -85 -287 -122 -369 -206 -71 -73 -100 -140 -136
-309 -47 -221 -87 -314 -194 -459 -59 -79 -185 -185 -271 -226 l-60 -29 -6
322 c-4 195 -11 340 -18 367 -24 89 -87 203 -148 264 -91 91 -179 137 -413
213 -398 129 -580 209 -812 360 -38 24 -68 47 -68 52 0 5 98 24 218 44 119 20
579 96 1022 171 443 74 1019 169 1280 211 261 42 646 105 855 140 209 34 390
63 403 64 23 1 23 1 5 -30z"/>
<path d="M5139 7190 c-113 -14 -192 -86 -208 -188 l-8 -52 138 0 139 0 0 125
c0 69 -1 124 -2 124 -2 -1 -28 -5 -59 -9z"/>
<path d="M5270 7076 l0 -126 140 0 140 0 0 33 c-1 101 -101 193 -232 212 l-48
6 0 -125z"/>
<path d="M6496 6178 c-97 -10 -149 -32 -195 -84 -80 -91 -75 -205 13 -282 55
-48 104 -57 213 -39 114 18 172 49 209 113 39 67 42 122 11 186 -46 92 -113
120 -251 106z"/>
<path d="M5069 5974 c-72 -22 -139 -73 -185 -141 -43 -63 -81 -149 -71 -159 7
-7 649 86 659 95 11 10 -27 82 -69 131 -54 62 -120 90 -213 89 -41 0 -96 -7
-121 -15z"/>
</g>
</svg>
